<mxfile host="65bd71144e" modified="2020-12-30T23:34:28.789Z" agent="5.0 (Macintosh; Intel Mac OS X 10_15_7) AppleWebKit/537.36 (KHTML, like Gecko) Code/1.52.1 Chrome/83.0.4103.122 Electron/9.3.5 Safari/537.36" etag="NiUNDYRRxcDvjpDeuwWt" version="13.10.0" type="embed">
    <diagram id="5sQUsfTEU4lIn7xQiOA0" name="Page-1">
        <mxGraphModel dx="1294" dy="1300" grid="0" gridSize="10" guides="1" tooltips="1" connect="1" arrows="1" fold="1" page="0" pageScale="1" pageWidth="850" pageHeight="1100" background="none" math="0" shadow="0">
            <root>
                <mxCell id="0"/>
                <mxCell id="1" parent="0"/>
                <mxCell id="23" value="" style="shape=image;imageAspect=0;aspect=fixed;verticalLabelPosition=bottom;verticalAlign=top;image=data:image/svg+xml,PHN2ZyB4bWxucz0iaHR0cDovL3d3dy53My5vcmcvMjAwMC9zdmciIHZpZXdCb3g9IjAgMCAyMDAgMjAwIj4mI3hhOyAgPHBhdGggZmlsbD0iI0UzREFDOSIgZD0iTTUxLjIsLTcyLjdDNjQuMywtNjAuOSw3MS41LC00My4yLDc2LjMsLTI1LjVDODEuMSwtNy43LDgzLjYsMTAuMSw3OC43LDI1LjZDNzMuNyw0MS4yLDYxLjQsNTQuNCw0Ny4xLDY0LjlDMzIuNyw3NS41LDE2LjQsODMuNCwxLjIsODEuN0MtMTMuOSw4MCwtMjcuOCw2OC43LC00MS41LDU3LjlDLTU1LjIsNDcuMiwtNjguOCwzNywtNzQuNywyMy4yQy04MC42LDkuNSwtNzguOSwtNy44LC03NC4xLC0yNC41Qy02OS4zLC00MS4yLC02MS4zLC01Ny4zLC00OC40LC02OS4xQy0zNS41LC04MC45LC0xNy44LC04OC41LDAuNiwtODkuNEMxOSwtOTAuMiwzOC4xLC04NC40LDUxLjIsLTcyLjdaIiB0cmFuc2Zvcm09InRyYW5zbGF0ZSgxMDAgMTAwKSIvPiYjeGE7PC9zdmc+;rotation=30;" parent="1" vertex="1">
                    <mxGeometry x="-69" y="-73" width="887" height="887" as="geometry"/>
                </mxCell>
            </root>
        </mxGraphModel>
    </diagram>
</mxfile>